<?xml version="1.0" standalone="no"?>
<svg viewBox="0 0 200 200" xmlns="http://www.w3.org/2000/svg">
  <path fill="#0891B2" d="M34.9,-57.8C43.2,-55.6,46.7,-42.3,53.8,-30.8C61,-19.3,71.8,-9.6,70.9,-0.5C70.1,8.7,57.5,17.3,47.8,24.3C38,31.2,31,36.5,23.5,40.3C16.1,44.1,8,46.4,-0.1,46.6C-8.2,46.8,-16.5,44.8,-24.7,41.4C-32.9,38,-41,33.2,-49,26C-57.1,18.9,-65.1,9.5,-68,-1.7C-70.9,-12.8,-68.8,-25.6,-64.5,-39.3C-60.2,-52.9,-53.7,-67.4,-42.6,-68C-31.5,-68.6,-15.7,-55.3,-1.2,-53.2C13.3,-51,26.5,-60,34.9,-57.8Z" transform="translate(100 100)" />
</svg>
